<?xml version="1.0" encoding="UTF-8" standalone="no"?>
<!-- Created with Inkscape (http://www.inkscape.org/) -->

<svg
   width="1080"
   height="1080"
   viewBox="0 0 1080 1080"
   version="1.1"
   id="svg1"
   xml:space="preserve"
   inkscape:version="1.4 (86a8ad7, 2024-10-11)"
   sodipodi:docname="imagotipo.svg"
   inkscape:export-filename="Logotipo.png"
   inkscape:export-xdpi="96"
   inkscape:export-ydpi="96"
   xmlns:inkscape="http://www.inkscape.org/namespaces/inkscape"
   xmlns:sodipodi="http://sodipodi.sourceforge.net/DTD/sodipodi-0.dtd"
   xmlns="http://www.w3.org/2000/svg"
   xmlns:svg="http://www.w3.org/2000/svg"><sodipodi:namedview
     id="namedview1"
     pagecolor="#ffffff"
     bordercolor="#000000"
     borderopacity="0.25"
     inkscape:showpageshadow="2"
     inkscape:pageopacity="0.0"
     inkscape:pagecheckerboard="0"
     inkscape:deskcolor="#d1d1d1"
     inkscape:document-units="px"
     showguides="true"
     inkscape:zoom="0.76508862"
     inkscape:cx="446.35352"
     inkscape:cy="569.21511"
     inkscape:window-width="1920"
     inkscape:window-height="991"
     inkscape:window-x="-9"
     inkscape:window-y="-9"
     inkscape:window-maximized="1"
     inkscape:current-layer="layer2" /><defs
     id="defs1"><rect
       x="197.36276"
       y="944.98857"
       width="731.94135"
       height="118.94047"
       id="rect32" /><rect
       x="231.05388"
       y="787.43163"
       width="818.85495"
       height="262.47721"
       id="rect31" /><inkscape:path-effect
       effect="fillet_chamfer"
       id="path-effect11"
       is_visible="true"
       lpeversion="1"
       nodesatellites_param="F,0,0,1,0,0,0,1 @ F,0,0,1,0,12.305329,0,1 @ F,0,0,1,0,0,0,1 @ F,0,0,1,0,0,0,1"
       radius="0"
       unit="px"
       method="auto"
       mode="F"
       chamfer_steps="1"
       flexible="false"
       use_knot_distance="true"
       apply_no_radius="true"
       apply_with_radius="true"
       only_selected="false"
       hide_knots="false" /><inkscape:path-effect
       effect="fillet_chamfer"
       id="path-effect9"
       is_visible="true"
       lpeversion="1"
       nodesatellites_param="F,0,0,1,0,0,0,1 @ F,0,0,1,0,12.305329,0,1 @ F,0,0,1,0,0,0,1 @ F,0,0,1,0,0,0,1"
       radius="0"
       unit="px"
       method="auto"
       mode="F"
       chamfer_steps="1"
       flexible="false"
       use_knot_distance="true"
       apply_no_radius="true"
       apply_with_radius="true"
       only_selected="false"
       hide_knots="false" /><inkscape:path-effect
       effect="fillet_chamfer"
       id="path-effect2"
       is_visible="true"
       lpeversion="1"
       nodesatellites_param="F,0,0,1,0,17.418351,0,1 @ F,0,0,1,0,0,0,1 @ F,0,0,1,0,0.3446083,0,1"
       radius="0"
       unit="px"
       method="auto"
       mode="F"
       chamfer_steps="1"
       flexible="false"
       use_knot_distance="true"
       apply_no_radius="true"
       apply_with_radius="true"
       only_selected="false"
       hide_knots="false" /><inkscape:path-effect
       effect="fillet_chamfer"
       id="path-effect1"
       is_visible="true"
       lpeversion="1"
       nodesatellites_param="F,0,0,1,0,0,0,1 @ F,0,0,1,0,0,0,1 @ F,0,0,1,0,0,0,1"
       radius="0"
       unit="px"
       method="auto"
       mode="F"
       chamfer_steps="1"
       flexible="false"
       use_knot_distance="true"
       apply_no_radius="true"
       apply_with_radius="true"
       only_selected="false"
       hide_knots="false" /></defs><g
     inkscape:groupmode="layer"
     id="layer4"
     inkscape:label="cara"
     transform="matrix(1.6550894,0,0,1.6550894,-366.84768,-171.91311)"><path
       d="m 474.65104,468.032 a 52.770886,52.770886 0 0 1 -13.96506,1.90477 52.770886,52.770886 0 0 1 -52.76951,-52.77088 52.770886,52.770886 0 0 1 14.21663,-35.7911 c -43.9217,14.59755 -87.76994,49.4493 -87.76994,49.4493 85.88285,19.61104 144.03935,72.35764 144.03935,72.35764 0,0 -5.75704,-17.66804 -3.75147,-35.14973 z"
       style="fill:#1a1a1a;stroke-width:1.17134"
       id="path49" /><path
       d="m 640.31599,385.47875 a 52.770886,52.770886 0 0 1 10.78308,31.68714 52.770886,52.770886 0 0 1 -52.77088,52.77088 52.770886,52.770886 0 0 1 -10.27994,-1.10028 c 4.19829,19.34985 -2.90967,41.18609 -2.90967,41.18609 0,0 59.15252,-53.65052 146.5067,-73.59754 0,0 -45.97714,-36.52704 -91.32929,-50.94629 z"
       style="fill:#1a1a1a;stroke-width:1.17134"
       id="path18" /><ellipse
       style="fill:#ffffff;stroke-width:0.848993"
       id="path15"
       cx="592.05042"
       cy="424.6767"
       rx="24.983412"
       ry="23.73007" /><ellipse
       style="fill:#ffffff;stroke-width:0.848993"
       id="ellipse15"
       cx="444.26962"
       cy="424.7793"
       rx="24.983412"
       ry="23.73007" /><circle
       style="display:none;fill:#1a1a1a"
       id="circle16"
       cx="525.91235"
       cy="296.30936"
       r="14.867558"
       inkscape:label="pupilaI" /><circle
       style="display:none;fill:#1a1a1a"
       id="path16"
       cx="650.91913"
       cy="294.95612"
       r="14.867558"
       inkscape:label="pupilaD" /><circle
       style="display:none;fill:#ffffff;stroke-width:0.31205"
       id="circle17"
       cx="534.82361"
       cy="286.0173"
       r="4.6394291"
       inkscape:label="iluminacionI" /><circle
       style="display:none;fill:#ffffff;stroke-width:0.31205"
       id="circle18"
       cx="658.62384"
       cy="283.96704"
       r="4.6394291"
       inkscape:label="iluminacionD" /><path
       style="display:inline;fill:#1a1a1a;stroke-width:1.0525"
       d="m 342.57915,378.01368 c 0,0 5.35005,-20.91381 19.94109,-35.99121 6.91583,-15.67592 -20.91382,-90.95081 -0.97274,-106.02821 19.94109,-15.0774 107.97368,43.77311 107.97368,43.77311 0,0 53.0141,-21.4002 114.78283,0.48636 43.28675,-36.96396 93.38265,-60.79599 109.91915,-44.74584 16.5365,16.05014 0,101.6509 -0.48637,112.83736 9.72736,14.59103 13.13194,28.69572 13.13194,28.69572 0,0 -39.88217,-30.6412 -96.30085,-30.6412 -56.41869,0 -80.25071,46.20497 -80.25071,46.20497 0,0 -31.61391,-45.23224 -90.46443,-45.23224 -58.85051,0 -97.27359,30.64118 -97.27359,30.64118 z"
       id="path13"
       sodipodi:nodetypes="cccccsccscsc" /><path
       style="display:inline;fill:#1a1a1a;stroke-width:1.0525"
       d="m 508.66947,485.94849 c 0.6795,8.40294 20.80175,17.88353 20.80175,17.88353 h 6.21071 c 0,0 19.15182,-9.75226 20.04269,-18.05548 0.71104,-6.62726 -2.947,-13.67796 -8.30073,-17.02375 -8.55495,-5.34637 -21.52552,-5.04005 -30.26443,0 -5.73648,3.30843 -9.05925,10.15564 -8.48999,17.1957 z"
       id="path11"
       sodipodi:nodetypes="sccssss" /></g><g
     inkscape:groupmode="layer"
     id="layer5"
     inkscape:label="lentes"
     style="display:inline"
     transform="matrix(1.6550894,0,0,1.6550894,-388.48032,-171.91311)"><path
       d="m 473.98027,370.20882 c -0.45486,0.033 -0.90921,0.0726 -1.36292,0.11888 -8.37763,0.25435 -16.53629,2.73583 -23.63679,7.18918 -12.95491,8.1621 -21.1433,22.10335 -21.96288,37.39314 -0.0942,0.825 -0.16652,1.65235 -0.21701,2.48118 0.0292,5.11531 0.89005,10.19183 2.5489,15.03079 0.54676,1.52727 1.1719,3.02535 1.87297,4.48823 0.52857,1.27598 1.11291,2.52814 1.75134,3.75285 8.37295,14.7655 24.03213,23.89518 41.00639,23.90773 5.01987,-0.0348 10.00203,-0.87053 14.75849,-2.47564 19.31035,-6.35939 32.37544,-24.37347 32.42251,-44.70396 -0.008,-17.72918 -9.95556,-33.95697 -25.7503,-42.00993 -1.03572,-0.52905 -2.09065,-1.01963 -3.16262,-1.47073 -0.96815,-0.40772 -1.94966,-0.78298 -2.94286,-1.12517 -4.93088,-1.70003 -10.10951,-2.57069 -15.32522,-2.57655 z"
       style="display:inline;opacity:1;fill:#ffd42a;fill-opacity:1;stroke-width:1.0525"
       id="path69" /><path
       d="m 611.62248,370.20882 c -26.05738,6.3e-4 -47.1805,21.12498 -47.1796,47.18238 0.004,0.0332 0.006,0.0663 0.009,0.0996 0.047,5.71184 1.13073,11.36768 3.19857,16.69229 0.60828,1.49566 1.29296,2.9591 2.05128,4.38455 0.58719,1.22314 1.22684,2.42038 1.91721,3.58837 6.31628,10.12585 16.23522,17.48184 27.75873,20.58614 3.98335,1.14472 8.10016,1.75959 12.24414,1.82874 26.05686,1.4e-4 47.18037,-21.12274 47.181,-47.17961 -0.008,-13.15906 -5.51253,-25.71659 -15.18284,-34.64104 -2.71879,-2.51502 -5.72427,-4.70115 -8.95434,-6.51326 -1.0168,-0.56667 -2.05421,-1.09552 -3.11012,-1.58545 -0.93154,-0.43488 -1.87706,-0.83917 -2.83502,-1.21226 -5.09085,-1.97943 -10.48674,-3.05983 -15.94725,-3.19304 -0.38364,-0.0171 -0.76748,-0.0295 -1.15143,-0.0374 z"
       style="display:inline;opacity:1;fill:#ffd42a;stroke-width:1.0525"
       id="path48" /><path
       d="m 473.98027,370.20882 c -0.45486,0.033 -0.90921,0.0726 -1.36292,0.11888 l -4.86834,4.75915 -40.73133,39.82317 c -0.0942,0.825 -0.16652,1.65235 -0.21701,2.48118 0.0292,5.11531 0.89005,10.19183 2.5489,15.03079 l 55.65154,-55.35573 4.30438,-4.28089 c -4.93088,-1.70003 -10.10951,-2.57069 -15.32522,-2.57655 z"
       style="opacity:0.755;mix-blend-mode:hard-light;fill:#a9f6f3;stroke-width:1.0525"
       id="path61" /><path
       d="m 492.24835,373.91054 c -1.01462,1.00089 -2.34012,2.33218 -4.12194,4.14265 -15.18848,15.43287 -50.96622,52.67423 -56.90387,58.85703 0.52857,1.27598 1.11291,2.52814 1.75134,3.75285 l 58.55707,-61.22483 3.88002,-4.05697 c -1.03572,-0.52905 -2.09065,-1.01963 -3.16262,-1.47073 z"
       style="display:inline;opacity:0.84;mix-blend-mode:hard-light;fill:#a9f6f3;stroke-width:1.0525"
       id="path62" /><path
       d="m 612.77391,370.24615 -13.87383,13.56558 -22.81711,22.30844 -11.63041,11.37054 c 0.047,5.71185 1.13073,11.36769 3.19857,16.6923 l 6.47039,-6.43447 48.27161,-48.01312 6.32803,-6.29624 c -5.09084,-1.97943 -10.48674,-3.05983 -15.94725,-3.19303 z"
       style="display:inline;opacity:0.75;mix-blend-mode:hard-light;fill:#a9f6f3;stroke-width:1.0525"
       id="path41" /><path
       d="m 631.55619,374.65144 c -1.28647,1.28749 -3.19149,3.22825 -5.18628,5.26367 -14.79143,15.0928 -40.41935,41.75279 -50.49013,52.23457 -1.40896,1.46645 -5.71931,5.94083 -6.17737,6.41787 0.58718,1.22314 1.22684,2.42038 1.91721,3.58838 l 6.20363,-6.48561 52.92708,-55.33915 3.91597,-4.09427 c -1.01679,-0.56667 -2.05421,-1.09552 -3.11011,-1.58546 z"
       style="display:inline;opacity:0.759;mix-blend-mode:hard-light;fill:#a9f6f3;stroke-width:1.0525"
       id="path42" /></g><g
     inkscape:groupmode="layer"
     id="layer3"
     inkscape:label="Laptop"
     style="display:inline;fill:#000080"
     transform="matrix(1.6550894,0,0,1.6550894,-388.48032,-171.91311)" /><g
     inkscape:groupmode="layer"
     id="layer2"
     inkscape:label="Cola"
     style="display:inline"><path
       style="display:inline;fill:#1a1a1a;stroke:#1a1a1a;stroke-width:1.74197;stroke-opacity:1"
       d="m 326.36234,880.73837 c 0,0 65.20359,-35.41921 45.88401,-163.41141 61.13161,10.11459 132.0171,4.82986 132.0171,4.82986 0,0 78.88827,82.10822 37.83416,210.10043 -109.47759,2.41494 -215.73527,-51.51888 -215.73527,-51.51888 z"
       id="path2"
       sodipodi:nodetypes="ccccc" /><path
       style="display:inline;fill:#1a1a1a;stroke:#1a1a1a;stroke-width:1.74197;stroke-opacity:1"
       d="m 267.59865,846.92912 c 0,0 -138.45697,-82.91318 -151.33667,-305.08832 78.88824,115.11247 114.70997,133.62708 211.30783,167.43634 4.82992,103.03773 -59.97116,137.65198 -59.97116,137.65198 z"
       id="path3"
       sodipodi:nodetypes="cccc" /><path
       style="display:inline;fill:#1a1a1a;stroke:#1a1a1a;stroke-width:1.74197;stroke-opacity:1"
       d="m 576.59043,714.23541 c 0,0 76.59475,77.14992 86.25453,210.77699 57.15376,-8.85481 165.82637,-40.24912 165.82637,-40.24912 0,0 -8.85479,-146.50678 -138.45694,-199.6356 -24.95446,11.26975 -113.62396,29.10773 -113.62396,29.10773 z"
       id="path4"
       sodipodi:nodetypes="ccccc" /><path
       style="display:inline;fill:#1a1a1a;stroke:#1a1a1a;stroke-width:1.74197;stroke-opacity:1"
       d="m 754.61295,665.8081 c 0,0 123.16231,64.39857 154.55662,187.56088 140.50503,-66.65865 125.57733,-62.78863 125.57733,-62.78863 0,0 -50.71393,-199.63562 -280.13395,-124.77225 z"
       id="path5"
       sodipodi:nodetypes="cccc" /></g></svg>
