<?xml version="1.0" encoding="UTF-8" standalone="no"?>
<!-- Created with Inkscape (http://www.inkscape.org/) -->

<svg
   width="1080"
   height="1080"
   viewBox="0 0 1080 1080"
   version="1.1"
   id="svg1"
   xml:space="preserve"
   inkscape:version="1.4 (86a8ad7, 2024-10-11)"
   sodipodi:docname="Logotipo.svg"
   inkscape:export-filename="Logotipo.png"
   inkscape:export-xdpi="96"
   inkscape:export-ydpi="96"
   xmlns:inkscape="http://www.inkscape.org/namespaces/inkscape"
   xmlns:sodipodi="http://sodipodi.sourceforge.net/DTD/sodipodi-0.dtd"
   xmlns="http://www.w3.org/2000/svg"
   xmlns:svg="http://www.w3.org/2000/svg"><sodipodi:namedview
     id="namedview1"
     pagecolor="#ffffff"
     bordercolor="#000000"
     borderopacity="0.25"
     inkscape:showpageshadow="2"
     inkscape:pageopacity="0.0"
     inkscape:pagecheckerboard="0"
     inkscape:deskcolor="#d1d1d1"
     inkscape:document-units="px"
     showguides="true"
     inkscape:zoom="0.76508862"
     inkscape:cx="446.35352"
     inkscape:cy="567.90807"
     inkscape:window-width="1920"
     inkscape:window-height="991"
     inkscape:window-x="-9"
     inkscape:window-y="-9"
     inkscape:window-maximized="1"
     inkscape:current-layer="layer5" /><defs
     id="defs1"><rect
       x="197.36276"
       y="944.98857"
       width="731.94135"
       height="118.94047"
       id="rect32" /><rect
       x="231.05388"
       y="787.43163"
       width="818.85495"
       height="262.47721"
       id="rect31" /><inkscape:path-effect
       effect="fillet_chamfer"
       id="path-effect11"
       is_visible="true"
       lpeversion="1"
       nodesatellites_param="F,0,0,1,0,0,0,1 @ F,0,0,1,0,12.305329,0,1 @ F,0,0,1,0,0,0,1 @ F,0,0,1,0,0,0,1"
       radius="0"
       unit="px"
       method="auto"
       mode="F"
       chamfer_steps="1"
       flexible="false"
       use_knot_distance="true"
       apply_no_radius="true"
       apply_with_radius="true"
       only_selected="false"
       hide_knots="false" /><inkscape:path-effect
       effect="fillet_chamfer"
       id="path-effect9"
       is_visible="true"
       lpeversion="1"
       nodesatellites_param="F,0,0,1,0,0,0,1 @ F,0,0,1,0,12.305329,0,1 @ F,0,0,1,0,0,0,1 @ F,0,0,1,0,0,0,1"
       radius="0"
       unit="px"
       method="auto"
       mode="F"
       chamfer_steps="1"
       flexible="false"
       use_knot_distance="true"
       apply_no_radius="true"
       apply_with_radius="true"
       only_selected="false"
       hide_knots="false" /><inkscape:path-effect
       effect="fillet_chamfer"
       id="path-effect2"
       is_visible="true"
       lpeversion="1"
       nodesatellites_param="F,0,0,1,0,17.418351,0,1 @ F,0,0,1,0,0,0,1 @ F,0,0,1,0,0.3446083,0,1"
       radius="0"
       unit="px"
       method="auto"
       mode="F"
       chamfer_steps="1"
       flexible="false"
       use_knot_distance="true"
       apply_no_radius="true"
       apply_with_radius="true"
       only_selected="false"
       hide_knots="false" /><inkscape:path-effect
       effect="fillet_chamfer"
       id="path-effect1"
       is_visible="true"
       lpeversion="1"
       nodesatellites_param="F,0,0,1,0,0,0,1 @ F,0,0,1,0,0,0,1 @ F,0,0,1,0,0,0,1"
       radius="0"
       unit="px"
       method="auto"
       mode="F"
       chamfer_steps="1"
       flexible="false"
       use_knot_distance="true"
       apply_no_radius="true"
       apply_with_radius="true"
       only_selected="false"
       hide_knots="false" /></defs><g
     inkscape:groupmode="layer"
     id="layer4"
     inkscape:label="cara"
     transform="matrix(1.6550894,0,0,1.6550894,-366.84768,-171.91311)"><path
       d="m 556.01464,325.874 a 45.051614,45.051614 0 0 1 -11.92227,1.62614 45.051614,45.051614 0 0 1 -45.05044,-45.05161 45.051614,45.051614 0 0 1 12.13704,-30.55561 c -37.49688,12.46223 -74.93104,42.2159 -74.93104,42.2159 73.31999,16.74236 122.96942,61.77324 122.96942,61.77324 0,0 -4.91491,-15.08358 -3.20271,-30.00806 z"
       style="fill:#1a1a1a"
       id="path49" /><path
       d="m 697.44629,255.39655 a 45.051614,45.051614 0 0 1 9.20574,27.05198 45.051614,45.051614 0 0 1 -45.05161,45.05161 45.051614,45.051614 0 0 1 -8.7762,-0.93933 c 3.58417,16.51937 -2.48405,35.16143 -2.48405,35.16143 0,0 50.49975,-45.80258 125.07585,-62.83177 0,0 -39.25165,-31.1839 -77.96973,-43.49392 z"
       style="fill:#1a1a1a"
       id="path18" /><ellipse
       style="fill:#ffffff;stroke-width:0.724803"
       id="path15"
       cx="656.24097"
       cy="288.86069"
       rx="21.328863"
       ry="20.25886" /><ellipse
       style="fill:#ffffff;stroke-width:0.724803"
       id="ellipse15"
       cx="530.07739"
       cy="288.94827"
       rx="21.328863"
       ry="20.25886" /><circle
       style="display:none;fill:#1a1a1a"
       id="circle16"
       cx="525.91235"
       cy="296.30936"
       r="14.867558"
       inkscape:label="pupilaI" /><circle
       style="display:none;fill:#1a1a1a"
       id="path16"
       cx="650.91913"
       cy="294.95612"
       r="14.867558"
       inkscape:label="pupilaD" /><circle
       style="display:none;fill:#ffffff;stroke-width:0.31205"
       id="circle17"
       cx="534.82361"
       cy="286.0173"
       r="4.6394291"
       inkscape:label="iluminacionI" /><circle
       style="display:none;fill:#ffffff;stroke-width:0.31205"
       id="circle18"
       cx="658.62384"
       cy="283.96704"
       r="4.6394291"
       inkscape:label="iluminacionD" /><path
       style="display:inline;fill:#1a1a1a;stroke-width:0.898541"
       d="m 443.26209,249.02347 c 0,0 4.56745,-17.85456 17.02413,-30.72646 5.90419,-13.38286 -17.85457,-77.64661 -0.83045,-90.51851 17.02413,-12.87189 92.1794,37.37003 92.1794,37.37003 0,0 45.25925,-18.2698 97.99251,0.41521 36.95481,-31.55691 79.72273,-51.90281 93.84029,-38.20046 14.11756,13.70234 0,86.78151 -0.41522,96.33162 8.30445,12.45667 11.21101,24.49814 11.21101,24.49814 0,0 -34.04825,-26.15903 -82.21406,-26.15903 -48.16582,0 -68.51172,39.44615 -68.51172,39.44615 0,0 -26.98946,-38.61571 -77.23138,-38.61571 -50.24192,0 -83.04451,26.15902 -83.04451,26.15902 z"
       id="path13"
       sodipodi:nodetypes="cccccsccscsc" /><path
       style="display:inline;fill:#1a1a1a;stroke-width:0.898541"
       d="m 585.05689,341.16968 c 0.5801,7.17377 17.75889,15.26755 17.75889,15.26755 h 5.30221 c 0,0 16.35031,-8.32571 17.11087,-15.41435 0.60703,-5.65783 -2.51592,-11.67716 -7.08651,-14.53353 -7.30354,-4.56431 -18.37679,-4.3028 -25.83738,0 -4.89735,2.82448 -7.73407,8.67008 -7.24808,14.68033 z"
       id="path11"
       sodipodi:nodetypes="sccssss" /></g><g
     inkscape:groupmode="layer"
     id="layer5"
     inkscape:label="lentes"
     style="display:inline"
     transform="matrix(1.6550894,0,0,1.6550894,-388.48032,-171.91311)"><path
       d="m 557.35391,242.36029 c -0.38832,0.0282 -0.77621,0.062 -1.16355,0.10149 -7.15216,0.21715 -14.11738,2.33564 -20.17923,6.13756 -11.05988,6.96815 -18.05048,18.87009 -18.75017,31.92331 -0.0804,0.70432 -0.14216,1.41064 -0.18527,2.11823 0.0249,4.36705 0.75986,8.70098 2.17605,12.8321 0.46678,1.30387 1.00048,2.58281 1.599,3.8317 0.45125,1.08933 0.95011,2.15833 1.49515,3.20389 7.14817,12.60561 20.51674,20.39981 35.00802,20.41053 4.28557,-0.0297 8.53894,-0.74319 12.59963,-2.11351 16.48565,-5.42914 27.6396,-20.80814 27.67978,-38.16471 -0.007,-15.13577 -8.49927,-28.98978 -21.98357,-35.86476 -0.88422,-0.45166 -1.78483,-0.87048 -2.7,-1.25559 -0.82653,-0.34808 -1.66446,-0.66845 -2.51238,-0.96058 -4.20959,-1.45135 -8.6307,-2.19465 -13.08346,-2.19966 z"
       style="display:inline;opacity:1;fill:#ffd42a;stroke-width:0.898541;fill-opacity:1"
       id="path69" /><path
       d="m 674.86196,242.36029 c -22.24574,5.4e-4 -40.27899,18.03484 -40.27822,40.28059 0.003,0.0283 0.005,0.0566 0.008,0.085 0.0401,4.87632 0.96533,9.70483 2.73069,14.25056 0.5193,1.27687 1.10382,2.52624 1.75122,3.74318 0.50129,1.04422 1.04738,2.06633 1.63676,3.06347 5.39234,8.64465 13.86035,14.92461 23.69821,17.57482 3.40067,0.97727 6.91528,1.5022 10.45308,1.56123 22.24529,1.2e-4 40.27887,-18.03293 40.27941,-40.27822 -0.007,-11.23417 -4.70616,-21.9548 -12.96191,-29.57379 -2.32109,-2.14712 -4.88693,-4.01347 -7.64451,-5.5605 -0.86806,-0.48378 -1.75372,-0.93527 -2.65517,-1.35354 -0.79528,-0.37126 -1.60249,-0.71641 -2.42032,-1.03493 -4.34616,-1.68988 -8.95275,-2.61224 -13.6145,-2.72596 -0.32752,-0.0146 -0.65521,-0.0252 -0.983,-0.0319 z"
       style="display:inline;opacity:1;fill:#ffd42a;stroke-width:0.898541"
       id="path48" /><path
       d="m 557.35391,242.36029 c -0.38832,0.0282 -0.77621,0.062 -1.16355,0.10149 l -4.15621,4.06299 -34.77319,33.99788 c -0.0804,0.70432 -0.14216,1.41064 -0.18527,2.11823 0.0249,4.36705 0.75986,8.70098 2.17605,12.8321 l 47.51089,-47.25835 3.67474,-3.65468 c -4.20959,-1.45135 -8.6307,-2.19465 -13.08346,-2.19966 z"
       style="opacity:0.755;mix-blend-mode:hard-light;fill:#a9f6f3;stroke-width:0.898541"
       id="path61" /><path
       d="m 572.94975,245.52053 c -0.8662,0.85448 -1.99781,1.99103 -3.51898,3.53667 -12.96673,13.17536 -43.51094,44.96909 -48.58003,50.24748 0.45125,1.08933 0.95011,2.15833 1.49515,3.20389 l 49.9914,-52.26893 3.31246,-3.46352 c -0.88422,-0.45166 -1.78483,-0.87048 -2.7,-1.25559 z"
       style="display:inline;opacity:0.84;mix-blend-mode:hard-light;fill:#a9f6f3;stroke-width:0.898541"
       id="path62" /><path
       d="m 675.84496,242.39216 -11.84438,11.58122 -19.47945,19.04519 -9.92913,9.70727 c 0.0401,4.87632 0.96533,9.70483 2.73069,14.25056 l 5.52391,-5.49324 41.21049,-40.98981 5.40237,-5.37523 c -4.34616,-1.68988 -8.95275,-2.61224 -13.6145,-2.72596 z"
       style="display:inline;opacity:0.75;mix-blend-mode:hard-light;fill:#a9f6f3;stroke-width:0.898541"
       id="path41" /><path
       d="m 691.87978,246.15305 c -1.09828,1.09916 -2.72464,2.75603 -4.42763,4.49371 -12.62776,12.88504 -34.50685,35.64523 -43.10449,44.59375 -1.20286,1.25194 -4.88269,5.07181 -5.27375,5.47907 0.50129,1.04422 1.04738,2.06633 1.63676,3.06347 l 5.29617,-5.5369 45.18496,-47.24419 3.34315,-3.49537 c -0.86806,-0.48378 -1.75372,-0.93527 -2.65517,-1.35354 z"
       style="display:inline;opacity:0.759;mix-blend-mode:hard-light;fill:#a9f6f3;stroke-width:0.898541"
       id="path42" /></g><g
     inkscape:groupmode="layer"
     id="layer3"
     inkscape:label="Laptop"
     style="display:inline;fill:#000080"
     transform="matrix(1.6550894,0,0,1.6550894,-388.48032,-171.91311)"><path
       d="m 528.17663,362.28513 -0.27378,44.17601 c 6.42943,-0.69489 12.99409,-1.51424 19.79925,-2.55958 1.44864,-0.22253 2.73429,-0.47645 4.14324,-0.70686 -0.001,-0.001 -0.0531,-0.0578 -0.0531,-0.0578 0,0 17.42461,-3.59987 33.85273,-7.67283 z"
       style="fill:#77022c;stroke-width:0.898541"
       id="path60" /><path
       d="m 314.06905,189.35027 0.20533,125.37205 0.16757,0.72575 c -0.0261,-0.4177 -0.0701,-0.81474 -0.0944,-1.23436 12.2956,17.94154 22.55105,31.28038 32.2679,41.71555 22.44069,24.09962 41.95744,32.4806 76.72829,44.6504 0.0127,0.27113 0.1336,-0.5712 0.1446,-0.3019 7.25759,1.80126 14.4496,2.89765 22.64721,4.08082 -0.0563,-0.38985 0.31231,0.76698 0.25292,0.37375 31.53264,5.21726 68.09607,2.49113 68.09607,2.49113 0,0 0.32868,0.38053 0.39414,0.45079 4.24906,-0.32138 8.60154,-0.73509 13.02446,-1.21311 l 0.27378,-44.17601 0.24545,-39.44273 z"
       style="fill:#50061f;stroke-width:0.898541"
       id="path81"
       sodipodi:nodetypes="ccccscccccccccc" /></g><g
     inkscape:groupmode="layer"
     id="layer2"
     inkscape:label="Cola"
     style="display:inline"><path
       style="display:inline;fill:#1a1a1a;stroke-width:1.48716;stroke:#1a1a1a;stroke-opacity:1"
       d="m 311.15984,637.46211 c 0,0 55.66568,-30.23813 39.17215,-139.50776 52.18934,8.63504 112.70577,4.12336 112.70577,4.12336 0,0 67.34857,70.09751 32.29982,179.36715 -93.46332,2.06168 -184.17774,-43.98275 -184.17774,-43.98275 z"
       id="path2"
       sodipodi:nodetypes="ccccc" /><path
       style="display:inline;fill:#1a1a1a;stroke-width:1.48716;stroke:#1a1a1a;stroke-opacity:1"
       d="m 260.99205,608.59844 c 0,0 -118.20363,-70.78472 -129.1993,-260.46031 67.34855,98.27394 97.93031,114.08025 180.39794,142.94392 4.1234,87.96548 -51.19864,117.51639 -51.19864,117.51639 z"
       id="path3"
       sodipodi:nodetypes="cccc" /><path
       style="display:inline;fill:#1a1a1a;stroke-width:1.48716;stroke:#1a1a1a;stroke-opacity:1"
       d="m 524.78482,495.31503 c 0,0 65.39055,65.86451 73.63731,179.94475 48.79336,-7.55954 141.56945,-34.36152 141.56945,-34.36152 0,0 -7.55952,-125.07592 -118.2036,-170.43311 -21.30414,9.62122 -97.00316,24.84988 -97.00316,24.84988 z"
       id="path4"
       sodipodi:nodetypes="ccccc" /><path
       style="display:inline;fill:#1a1a1a;stroke-width:1.48716;stroke:#1a1a1a;stroke-opacity:1"
       d="m 676.76639,453.97162 c 0,0 105.14625,54.97841 131.94823,160.12466 119.95203,-56.90789 107.20795,-53.60397 107.20795,-53.60397 0,0 -43.29553,-170.43312 -239.15618,-106.52069 z"
       id="path5"
       sodipodi:nodetypes="cccc" /></g><text
     xml:space="preserve"
     transform="matrix(1.3310803,0,0,1.3310803,-185.47362,-404.48203)"
     id="text31"
     style="font-style:normal;font-variant:normal;font-weight:normal;font-stretch:normal;font-size:213.333px;font-family:'Century Gothic';-inkscape-font-specification:'Century Gothic, Normal';font-variant-ligatures:normal;font-variant-caps:normal;font-variant-numeric:normal;font-variant-east-asian:normal;text-align:start;letter-spacing:-5px;writing-mode:lr-tb;direction:ltr;white-space:pre;shape-inside:url(#rect31);shape-padding:3.69686;display:inline;fill:#77022c;fill-opacity:1"><tspan
       x="234.75195"
       y="984.80852"
       id="tspan6">AECC</tspan></text><text
     xml:space="preserve"
     transform="translate(-38.855528,-19.605572)"
     id="text32"
     style="font-style:italic;font-variant:normal;font-weight:normal;font-stretch:normal;font-size:48px;font-family:'Courier New';-inkscape-font-specification:'Courier New Italic';font-variant-ligatures:normal;font-variant-caps:normal;font-variant-numeric:normal;font-variant-east-asian:normal;text-align:center;letter-spacing:-3.33px;word-spacing:5px;writing-mode:lr-tb;direction:ltr;white-space:pre;shape-inside:url(#rect32);display:inline;fill:#50061f;fill-opacity:1"
     x="359.35938"
     y="0"><tspan
       x="197.52336"
       y="987.6976"
       id="tspan8"><tspan
         dx="0 0 0 0 0 0 0 0 0 0 -5.0000019 4.9999981 0 -5.0000172 5.0000134 0 0 0 0 0 0 0 0 0 0 -5.0000172 4.9999828 0 -5.0000172"
         id="tspan7">Asociación de Estudiantes de </tspan></tspan><tspan
       x="222.99805"
       y="1047.6976"
       id="tspan10"><tspan
         dx="0 0 0 0 0 0 0 0 -5.0000019 4.9999981 0 -5.0000172 5.0000134 0 -4.9999866 4.9999828"
         id="tspan9">Ciencias de la Computación</tspan></tspan></text></svg>
